<?xml version="1.0" encoding="utf-8"?>
<!-- Generator: Adobe Illustrator 27.0.1, SVG Export Plug-In . SVG Version: 6.00 Build 0)  -->
<svg version="1.1" id="Layer_1" xmlns="http://www.w3.org/2000/svg" xmlns:xlink="http://www.w3.org/1999/xlink" x="0px" y="0px"
	 viewBox="0 0 60 60" style="enable-background:new 0 0 60 60;" xml:space="preserve">
<style type="text/css">
	.st0{enable-background:new    ;}
</style>
<g class="st0">
	<path d="M9.6,20.3l-5.2-8.2h2l4.1,6.8h0l4.2-6.8h1.9l-5.2,8.3v6H9.6V20.3z"/>
</g>
<g class="st0">
	<path d="M17.3,21.8v-9.7h1.8v9.5c0,2.4,1.4,3.5,3.7,3.5c2.3,0,3.6-1,3.6-3.5v-9.5h1.8v9.7c0,3.5-2.4,4.8-5.5,4.8
		C19.7,26.6,17.3,25.2,17.3,21.8z"/>
</g>
<g class="st0">
	<path d="M29.8,12.1h1.9l6.5,9.9c0.5,0.7,1,1.8,1,1.8h0V12.1H41v14.3h-1.8l-6.6-10c-0.5-0.7-1.1-1.8-1.1-1.8h0v11.7h-1.7V12.1z"/>
</g>
<g class="st0">
	<path d="M47.4,12.1h2l5.3,14.3h-2L51.2,22h-5.7L44,26.4h-1.8L47.4,12.1z M46,20.6h4.7l-1.6-4.8c-0.3-0.8-0.6-2-0.6-2h0
		c0,0-0.4,1.2-0.7,2L46,20.6z"/>
</g>
<g class="st0">
	<path d="M5.5,30.1h6.1c1.5,0,2.6,0.4,3.4,1.2c0.6,0.6,0.9,1.4,0.9,2.4c0,1.6-0.9,2.6-2.3,3v0.1c1.6,0.4,2.9,1.5,2.9,3.5
		c0,1.1-0.4,2-1,2.7c-0.8,0.9-2,1.4-3.6,1.4H5.5V30.1z M11.4,36.2c1.7,0,2.8-0.9,2.8-2.3c0-1.4-0.9-2.2-2.5-2.2H7.3v4.6H11.4z
		 M11.8,42.8c1,0,1.8-0.3,2.2-0.7c0.4-0.4,0.6-1,0.6-1.7c0-1.8-1.3-2.7-3-2.7H7.3v5H11.8z"/>
</g>
<g class="st0">
	<path d="M21.6,38.3l-5.2-8.2h2l4.1,6.8h0l4.2-6.8h1.9l-5.2,8.3v6h-1.8V38.3z"/>
</g>
<g class="st0">
	<path d="M29.6,39.8v-9.7h1.8v9.5c0,2.4,1.4,3.5,3.7,3.5c2.3,0,3.6-1,3.6-3.5v-9.5h1.8v9.7c0,3.5-2.4,4.8-5.5,4.8
		C31.9,44.6,29.6,43.2,29.6,39.8z"/>
</g>
<g class="st0">
	<path d="M42.4,30.1h1.9l6.5,9.9c0.5,0.7,1,1.8,1,1.8h0V30.1h1.7v14.3h-1.8l-6.6-10c-0.5-0.7-1.1-1.8-1.1-1.8h0v11.7h-1.7V30.1z"/>
</g>
</svg>
