<?xml version="1.0" encoding="utf-8"?>
<!-- Generator: Adobe Illustrator 26.5.0, SVG Export Plug-In . SVG Version: 6.00 Build 0)  -->
<svg version="1.1" id="Layer_1" xmlns="http://www.w3.org/2000/svg" xmlns:xlink="http://www.w3.org/1999/xlink" x="0px" y="0px"
	 viewBox="0 0 300 125" style="enable-background:new 0 0 300 125;" xml:space="preserve">
<style type="text/css">
	.st0{fill:#1D1D1B;}
</style>
<g>
	<g>
		<path d="M18.75,18.36h18.37c6.93,0,11.6,4.34,11.6,10.78c0,4.78-2.09,8.19-6.82,9.73v0.17c4.01,1.43,5.28,4.18,5.66,10.01
			c0.44,6.32,1.1,7.92,1.81,8.41v0.22h-5.33c-0.82-0.71-0.99-2.2-1.43-8.8c-0.38-5.77-2.69-7.81-7.97-7.81H23.7v16.61h-4.95V18.36z
			 M23.7,37.06h11.66c5.5,0,8.25-2.75,8.25-7.2c0-4.78-2.2-7.2-7.97-7.2H23.7V37.06z"/>
		<path d="M81.39,42.34c-1.76,9.29-7.37,16.39-16.72,16.39c-10.94,0-15.84-7.09-14.52-17.1c1.15-8.08,7.7-14.85,18.04-14.85
			c9.02,0,12.54,4.89,11.82,9.9c-0.39,2.58-1.81,4.45-4.29,5.66c-2.47,1.15-5.55,1.76-9.18,1.76c-4.62,0-8.47-0.88-11.16-2.36
			c-0.22,0.94-0.22,1.7-0.22,2.42c0,5.55,3.63,10.06,11.44,10.06c7.75,0,12.98-4.73,14.57-11.99L81.39,42.34z M55.43,41.35
			c2.69,1.54,6.71,2.31,10.89,2.31c4.84,0,8.14-1.32,8.8-5.28c0.66-3.57-1.71-6.76-7.81-6.76C60.88,31.62,56.53,35.8,55.43,41.35z"
			/>
		<path d="M80.9,48.44h4.56c0.6,4.95,3.9,6.32,8.14,6.32c4.67,0,6.6-2.03,6.6-4.67c0-3.19-2.2-4.01-7.42-5.11
			c-5.61-1.16-10.61-2.31-10.61-8.52c0-4.73,3.63-7.81,10.23-7.81c7.04,0,10.5,3.35,11.16,8.91h-4.56
			c-0.44-3.74-2.47-5.39-6.71-5.39c-4.07,0-5.72,1.81-5.72,4.07c0,3.08,2.75,3.68,7.64,4.67c5.72,1.15,10.5,2.42,10.5,8.96
			c0,5.72-4.67,8.63-11.22,8.63C85.68,58.5,81.34,54.82,80.9,48.44z"/>
		<path d="M106.8,29.25h4.46v4.01h0.11c2.14-2.91,5-4.67,9.13-4.67c7.2,0,12.21,5.5,12.21,14.96c0,9.13-4.67,14.96-12.37,14.96
			c-3.85,0-6.6-1.16-8.96-4.18h-0.11v12.48h-4.46V29.25z M128.14,43.6c0-6.38-2.69-11.22-8.08-11.22c-6.21,0-9.07,5.06-9.07,11.22
			s2.47,11.16,9.02,11.16C125.45,54.76,128.14,50.04,128.14,43.6z"/>
		<path d="M134.47,43.49c0-8.25,5.28-14.96,13.75-14.96c8.52,0,13.69,6.71,13.69,14.96c0,8.25-5.17,14.96-13.69,14.96
			C139.75,58.45,134.47,51.74,134.47,43.49z M157.34,43.49c0-6.27-3.08-11.27-9.13-11.27c-6.05,0-9.18,5-9.18,11.27
			s3.13,11.22,9.18,11.22C154.27,54.71,157.34,49.76,157.34,43.49z"/>
		<path d="M168.62,32.99h0.11c2.04-2.69,4.89-4.4,9.02-4.4c5.94,0,9.57,3.24,9.57,9.13v19.96h-4.46V38.1c0-3.68-2.42-5.77-6.43-5.77
			c-4.51,0-7.81,3.19-7.81,7.86v17.49h-4.45V29.25h4.45V32.99z"/>
		<path d="M190.29,48.44h4.56c0.6,4.95,3.9,6.32,8.14,6.32c4.67,0,6.6-2.03,6.6-4.67c0-3.19-2.2-4.01-7.42-5.11
			c-5.61-1.16-10.61-2.31-10.61-8.52c0-4.73,3.63-7.81,10.23-7.81c7.04,0,10.5,3.35,11.16,8.91h-4.56
			c-0.44-3.74-2.47-5.39-6.71-5.39c-4.07,0-5.72,1.81-5.72,4.07c0,3.08,2.75,3.68,7.64,4.67c5.72,1.15,10.5,2.42,10.5,8.96
			c0,5.72-4.67,8.63-11.22,8.63C195.08,58.5,190.73,54.82,190.29,48.44z"/>
		<path d="M225.49,27.88L222.52,49c-0.66,4.23-0.22,5.39,1.26,5.39c1.71,0,3.02-3.13,4.56-9.07h0.33
			c-1.92,7.97-4.51,13.91-8.58,13.91c-3.25,0-4.07-2.2-3.19-8.14l3.3-23.21H225.49z M227.69,23.92v0.44H219l0.11-0.44H227.69z"/>
		<path d="M228.02,29.25h4.78l5.88,18.04c0.83,2.53,1.87,5.99,1.87,5.99h0.11c0,0,1.04-3.52,1.87-5.99l5.99-18.04h4.62l-10.23,28.43
			h-4.95L228.02,29.25z"/>
		<path d="M283.35,42.34c-1.76,9.29-7.37,16.39-16.72,16.39c-10.94,0-15.84-7.09-14.52-17.1c1.16-8.08,7.7-14.85,18.04-14.85
			c9.02,0,12.54,4.89,11.82,9.9c-0.38,2.58-1.82,4.45-4.29,5.66c-2.47,1.15-5.55,1.76-9.18,1.76c-4.62,0-8.47-0.88-11.16-2.36
			c-0.22,0.94-0.22,1.7-0.22,2.42c0,5.55,3.63,10.06,11.44,10.06c7.75,0,12.98-4.73,14.57-11.99L283.35,42.34z M257.39,41.35
			c2.69,1.54,6.71,2.31,10.89,2.31c4.84,0,8.14-1.32,8.8-5.28c0.66-3.57-1.71-6.76-7.81-6.76C262.84,31.62,258.49,35.8,257.39,41.35
			z"/>
		<path d="M72.1,60.36h14.3c11.82,0,17.43,8.03,17.43,19.8s-5.99,19.52-17.82,19.52H72.1V60.36z M85.85,95.33
			c9.24,0,12.92-5.94,12.92-15.18c0-9.24-3.3-15.51-12.54-15.51h-9.18v30.69H85.85z"/>
		<path d="M136.66,84.34c-1.76,9.29-7.37,16.39-16.72,16.39c-10.94,0-15.84-7.09-14.52-17.1c1.15-8.08,7.7-14.85,18.04-14.85
			c9.02,0,12.54,4.89,11.82,9.9c-0.38,2.58-1.81,4.45-4.29,5.66c-2.47,1.16-5.55,1.76-9.18,1.76c-4.62,0-8.47-0.88-11.16-2.36
			c-0.22,0.93-0.22,1.7-0.22,2.42c0,5.55,3.63,10.06,11.44,10.06c7.75,0,12.98-4.73,14.57-11.99L136.66,84.34z M110.71,83.35
			c2.69,1.54,6.71,2.31,10.89,2.31c4.84,0,8.14-1.32,8.8-5.28c0.66-3.58-1.7-6.76-7.81-6.76C116.15,73.62,111.81,77.8,110.71,83.35z
			"/>
		<path d="M137.27,90.44h4.56c0.6,4.95,3.9,6.32,8.14,6.32c4.67,0,6.6-2.03,6.6-4.67c0-3.19-2.2-4.01-7.42-5.11
			c-5.61-1.16-10.61-2.31-10.61-8.52c0-4.73,3.63-7.81,10.23-7.81c7.04,0,10.5,3.35,11.16,8.91h-4.56
			c-0.44-3.74-2.47-5.39-6.71-5.39c-4.07,0-5.72,1.81-5.72,4.07c0,3.08,2.75,3.68,7.64,4.67c5.72,1.15,10.5,2.42,10.5,8.96
			c0,5.72-4.67,8.63-11.22,8.63C142.06,100.5,137.71,96.82,137.27,90.44z"/>
		<path d="M171.37,69.88L168.4,91c-0.66,4.23-0.22,5.39,1.26,5.39c1.7,0,3.02-3.13,4.56-9.07h0.33c-1.92,7.97-4.51,13.91-8.58,13.91
			c-3.25,0-4.07-2.2-3.19-8.14l3.3-23.21H171.37z M173.57,65.92v0.44h-8.69l0.11-0.44H173.57z"/>
		<path d="M176.1,101.27h4.12c0.44,3.13,3.41,4.34,7.81,4.34c5.22,0,8.14-2.37,8.14-7.31v-4.01h-0.11c-2.09,2.7-4.34,4.4-8.41,4.4
			c-7.37,0-12.43-5.88-12.43-14.08c0-8.85,5.55-14.02,12.15-14.02c4.12,0,6.76,1.59,8.69,4.29h0.11v-3.63h4.45v26.89
			c0,7.48-4.95,11-12.48,11C180.78,109.14,176.6,106.17,176.1,101.27z M196.5,84.39c0-6.21-2.64-10.06-8.69-10.06
			c-5.33,0-8.03,4.18-8.03,10.34c0,6.21,2.8,10.28,8.08,10.28C194.42,94.95,196.5,90.39,196.5,84.39z"/>
		<path d="M207.84,74.99h0.11c2.04-2.7,4.89-4.4,9.02-4.4c5.94,0,9.57,3.24,9.57,9.13v19.96h-4.46V80.1c0-3.68-2.42-5.77-6.43-5.77
			c-4.51,0-7.81,3.19-7.81,7.86v17.49h-4.46V71.25h4.46V74.99z"/>
	</g>
	<g>
		<path class="st0" d="M18.75,18.36h18.37c6.93,0,11.6,4.34,11.6,10.78c0,4.78-2.09,8.19-6.82,9.73v0.17
			c4.01,1.43,5.28,4.18,5.66,10.01c0.44,6.32,1.1,7.92,1.81,8.41v0.22h-5.33c-0.82-0.71-0.99-2.2-1.43-8.8
			c-0.38-5.77-2.69-7.81-7.97-7.81H23.7v16.61h-4.95V18.36z M23.7,37.06h11.66c5.5,0,8.25-2.75,8.25-7.2c0-4.78-2.2-7.2-7.97-7.2
			H23.7V37.06z"/>
		<path class="st0" d="M81.39,42.34c-1.76,9.29-7.37,16.39-16.72,16.39c-10.94,0-15.84-7.09-14.52-17.1
			c1.15-8.08,7.7-14.85,18.04-14.85c9.02,0,12.54,4.89,11.82,9.9c-0.39,2.58-1.81,4.45-4.29,5.66c-2.47,1.15-5.55,1.76-9.18,1.76
			c-4.62,0-8.47-0.88-11.16-2.36c-0.22,0.94-0.22,1.7-0.22,2.42c0,5.55,3.63,10.06,11.44,10.06c7.75,0,12.98-4.73,14.57-11.99
			L81.39,42.34z M55.43,41.35c2.69,1.54,6.71,2.31,10.89,2.31c4.84,0,8.14-1.32,8.8-5.28c0.66-3.57-1.71-6.76-7.81-6.76
			C60.88,31.62,56.53,35.8,55.43,41.35z"/>
		<path class="st0" d="M80.9,48.44h4.56c0.6,4.95,3.9,6.32,8.14,6.32c4.67,0,6.6-2.03,6.6-4.67c0-3.19-2.2-4.01-7.42-5.11
			c-5.61-1.16-10.61-2.31-10.61-8.52c0-4.73,3.63-7.81,10.23-7.81c7.04,0,10.5,3.35,11.16,8.91h-4.56
			c-0.44-3.74-2.47-5.39-6.71-5.39c-4.07,0-5.72,1.81-5.72,4.07c0,3.08,2.75,3.68,7.64,4.67c5.72,1.15,10.5,2.42,10.5,8.96
			c0,5.72-4.67,8.63-11.22,8.63C85.68,58.5,81.34,54.82,80.9,48.44z"/>
		<path class="st0" d="M106.8,29.25h4.46v4.01h0.11c2.14-2.91,5-4.67,9.13-4.67c7.2,0,12.21,5.5,12.21,14.96
			c0,9.13-4.67,14.96-12.37,14.96c-3.85,0-6.6-1.16-8.96-4.18h-0.11v12.48h-4.46V29.25z M128.14,43.6c0-6.38-2.69-11.22-8.08-11.22
			c-6.21,0-9.07,5.06-9.07,11.22s2.47,11.16,9.02,11.16C125.45,54.76,128.14,50.04,128.14,43.6z"/>
		<path class="st0" d="M134.47,43.49c0-8.25,5.28-14.96,13.75-14.96c8.52,0,13.69,6.71,13.69,14.96c0,8.25-5.17,14.96-13.69,14.96
			C139.75,58.45,134.47,51.74,134.47,43.49z M157.34,43.49c0-6.27-3.08-11.27-9.13-11.27c-6.05,0-9.18,5-9.18,11.27
			s3.13,11.22,9.18,11.22C154.27,54.71,157.34,49.76,157.34,43.49z"/>
		<path class="st0" d="M168.62,32.99h0.11c2.04-2.69,4.89-4.4,9.02-4.4c5.94,0,9.57,3.24,9.57,9.13v19.96h-4.46V38.1
			c0-3.68-2.42-5.77-6.43-5.77c-4.51,0-7.81,3.19-7.81,7.86v17.49h-4.45V29.25h4.45V32.99z"/>
		<path class="st0" d="M190.29,48.44h4.56c0.6,4.95,3.9,6.32,8.14,6.32c4.67,0,6.6-2.03,6.6-4.67c0-3.19-2.2-4.01-7.42-5.11
			c-5.61-1.16-10.61-2.31-10.61-8.52c0-4.73,3.63-7.81,10.23-7.81c7.04,0,10.5,3.35,11.16,8.91h-4.56
			c-0.44-3.74-2.47-5.39-6.71-5.39c-4.07,0-5.72,1.81-5.72,4.07c0,3.08,2.75,3.68,7.64,4.67c5.72,1.15,10.5,2.42,10.5,8.96
			c0,5.72-4.67,8.63-11.22,8.63C195.08,58.5,190.73,54.82,190.29,48.44z"/>
		<path class="st0" d="M225.49,27.88L222.52,49c-0.66,4.23-0.22,5.39,1.26,5.39c1.71,0,3.02-3.13,4.56-9.07h0.33
			c-1.92,7.97-4.51,13.91-8.58,13.91c-3.25,0-4.07-2.2-3.19-8.14l3.3-23.21H225.49z M227.69,23.92v0.44H219l0.11-0.44H227.69z"/>
		<path class="st0" d="M228.02,29.25h4.78l5.88,18.04c0.83,2.53,1.87,5.99,1.87,5.99h0.11c0,0,1.04-3.52,1.87-5.99l5.99-18.04h4.62
			l-10.23,28.43h-4.95L228.02,29.25z"/>
		<path class="st0" d="M283.35,42.34c-1.76,9.29-7.37,16.39-16.72,16.39c-10.94,0-15.84-7.09-14.52-17.1
			c1.16-8.08,7.7-14.85,18.04-14.85c9.02,0,12.54,4.89,11.82,9.9c-0.38,2.58-1.82,4.45-4.29,5.66c-2.47,1.15-5.55,1.76-9.18,1.76
			c-4.62,0-8.47-0.88-11.16-2.36c-0.22,0.94-0.22,1.7-0.22,2.42c0,5.55,3.63,10.06,11.44,10.06c7.75,0,12.98-4.73,14.57-11.99
			L283.35,42.34z M257.39,41.35c2.69,1.54,6.71,2.31,10.89,2.31c4.84,0,8.14-1.32,8.8-5.28c0.66-3.57-1.71-6.76-7.81-6.76
			C262.84,31.62,258.49,35.8,257.39,41.35z"/>
		<path class="st0" d="M72.1,60.36h14.3c11.82,0,17.43,8.03,17.43,19.8s-5.99,19.52-17.82,19.52H72.1V60.36z M85.85,95.33
			c9.24,0,12.92-5.94,12.92-15.18c0-9.24-3.3-15.51-12.54-15.51h-9.18v30.69H85.85z"/>
		<path class="st0" d="M136.66,84.34c-1.76,9.29-7.37,16.39-16.72,16.39c-10.94,0-15.84-7.09-14.52-17.1
			c1.15-8.08,7.7-14.85,18.04-14.85c9.02,0,12.54,4.89,11.82,9.9c-0.38,2.58-1.81,4.45-4.29,5.66c-2.47,1.16-5.55,1.76-9.18,1.76
			c-4.62,0-8.47-0.88-11.16-2.36c-0.22,0.93-0.22,1.7-0.22,2.42c0,5.55,3.63,10.06,11.44,10.06c7.75,0,12.98-4.73,14.57-11.99
			L136.66,84.34z M110.71,83.35c2.69,1.54,6.71,2.31,10.89,2.31c4.84,0,8.14-1.32,8.8-5.28c0.66-3.58-1.7-6.76-7.81-6.76
			C116.15,73.62,111.81,77.8,110.71,83.35z"/>
		<path class="st0" d="M137.27,90.44h4.56c0.6,4.95,3.9,6.32,8.14,6.32c4.67,0,6.6-2.03,6.6-4.67c0-3.19-2.2-4.01-7.42-5.11
			c-5.61-1.16-10.61-2.31-10.61-8.52c0-4.73,3.63-7.81,10.23-7.81c7.04,0,10.5,3.35,11.16,8.91h-4.56
			c-0.44-3.74-2.47-5.39-6.71-5.39c-4.07,0-5.72,1.81-5.72,4.07c0,3.08,2.75,3.68,7.64,4.67c5.72,1.15,10.5,2.42,10.5,8.96
			c0,5.72-4.67,8.63-11.22,8.63C142.06,100.5,137.71,96.82,137.27,90.44z"/>
		<path class="st0" d="M171.37,69.88L168.4,91c-0.66,4.23-0.22,5.39,1.26,5.39c1.7,0,3.02-3.13,4.56-9.07h0.33
			c-1.92,7.97-4.51,13.91-8.58,13.91c-3.25,0-4.07-2.2-3.19-8.14l3.3-23.21H171.37z M173.57,65.92v0.44h-8.69l0.11-0.44H173.57z"/>
		<path class="st0" d="M176.1,101.27h4.12c0.44,3.13,3.41,4.34,7.81,4.34c5.22,0,8.14-2.37,8.14-7.31v-4.01h-0.11
			c-2.09,2.7-4.34,4.4-8.41,4.4c-7.37,0-12.43-5.88-12.43-14.08c0-8.85,5.55-14.02,12.15-14.02c4.12,0,6.76,1.59,8.69,4.29h0.11
			v-3.63h4.45v26.89c0,7.48-4.95,11-12.48,11C180.78,109.14,176.6,106.17,176.1,101.27z M196.5,84.39c0-6.21-2.64-10.06-8.69-10.06
			c-5.33,0-8.03,4.18-8.03,10.34c0,6.21,2.8,10.28,8.08,10.28C194.42,94.95,196.5,90.39,196.5,84.39z"/>
		<path class="st0" d="M207.84,74.99h0.11c2.04-2.7,4.89-4.4,9.02-4.4c5.94,0,9.57,3.24,9.57,9.13v19.96h-4.46V80.1
			c0-3.68-2.42-5.77-6.43-5.77c-4.51,0-7.81,3.19-7.81,7.86v17.49h-4.46V71.25h4.46V74.99z"/>
	</g>
	<g>
		<path class="st0" d="M18.75,18.36h18.37c6.93,0,11.6,4.34,11.6,10.78c0,4.78-2.09,8.19-6.82,9.73v0.17
			c4.01,1.43,5.28,4.18,5.66,10.01c0.44,6.32,1.1,7.92,1.81,8.41v0.22h-5.33c-0.82-0.71-0.99-2.2-1.43-8.8
			c-0.38-5.77-2.69-7.81-7.97-7.81H23.7v16.61h-4.95V18.36z M23.7,37.06h11.66c5.5,0,8.25-2.75,8.25-7.2c0-4.78-2.2-7.2-7.97-7.2
			H23.7V37.06z"/>
		<path class="st0" d="M81.39,42.34c-1.76,9.29-7.37,16.39-16.72,16.39c-10.94,0-15.84-7.09-14.52-17.1
			c1.15-8.08,7.7-14.85,18.04-14.85c9.02,0,12.54,4.89,11.82,9.9c-0.39,2.58-1.81,4.45-4.29,5.66c-2.47,1.15-5.55,1.76-9.18,1.76
			c-4.62,0-8.47-0.88-11.16-2.36c-0.22,0.94-0.22,1.7-0.22,2.42c0,5.55,3.63,10.06,11.44,10.06c7.75,0,12.98-4.73,14.57-11.99
			L81.39,42.34z M55.43,41.35c2.69,1.54,6.71,2.31,10.89,2.31c4.84,0,8.14-1.32,8.8-5.28c0.66-3.57-1.71-6.76-7.81-6.76
			C60.88,31.62,56.53,35.8,55.43,41.35z"/>
		<path class="st0" d="M80.9,48.44h4.56c0.6,4.95,3.9,6.32,8.14,6.32c4.67,0,6.6-2.03,6.6-4.67c0-3.19-2.2-4.01-7.42-5.11
			c-5.61-1.16-10.61-2.31-10.61-8.52c0-4.73,3.63-7.81,10.23-7.81c7.04,0,10.5,3.35,11.16,8.91h-4.56
			c-0.44-3.74-2.47-5.39-6.71-5.39c-4.07,0-5.72,1.81-5.72,4.07c0,3.08,2.75,3.68,7.64,4.67c5.72,1.15,10.5,2.42,10.5,8.96
			c0,5.72-4.67,8.63-11.22,8.63C85.68,58.5,81.34,54.82,80.9,48.44z"/>
		<path class="st0" d="M106.8,29.25h4.46v4.01h0.11c2.14-2.91,5-4.67,9.13-4.67c7.2,0,12.21,5.5,12.21,14.96
			c0,9.13-4.67,14.96-12.37,14.96c-3.85,0-6.6-1.16-8.96-4.18h-0.11v12.48h-4.46V29.25z M128.14,43.6c0-6.38-2.69-11.22-8.08-11.22
			c-6.21,0-9.07,5.06-9.07,11.22s2.47,11.16,9.02,11.16C125.45,54.76,128.14,50.04,128.14,43.6z"/>
		<path class="st0" d="M134.47,43.49c0-8.25,5.28-14.96,13.75-14.96c8.52,0,13.69,6.71,13.69,14.96c0,8.25-5.17,14.96-13.69,14.96
			C139.75,58.45,134.47,51.74,134.47,43.49z M157.34,43.49c0-6.27-3.08-11.27-9.13-11.27c-6.05,0-9.18,5-9.18,11.27
			s3.13,11.22,9.18,11.22C154.27,54.71,157.34,49.76,157.34,43.49z"/>
		<path class="st0" d="M168.62,32.99h0.11c2.04-2.69,4.89-4.4,9.02-4.4c5.94,0,9.57,3.24,9.57,9.13v19.96h-4.46V38.1
			c0-3.68-2.42-5.77-6.43-5.77c-4.51,0-7.81,3.19-7.81,7.86v17.49h-4.45V29.25h4.45V32.99z"/>
		<path class="st0" d="M190.29,48.44h4.56c0.6,4.95,3.9,6.32,8.14,6.32c4.67,0,6.6-2.03,6.6-4.67c0-3.19-2.2-4.01-7.42-5.11
			c-5.61-1.16-10.61-2.31-10.61-8.52c0-4.73,3.63-7.81,10.23-7.81c7.04,0,10.5,3.35,11.16,8.91h-4.56
			c-0.44-3.74-2.47-5.39-6.71-5.39c-4.07,0-5.72,1.81-5.72,4.07c0,3.08,2.75,3.68,7.64,4.67c5.72,1.15,10.5,2.42,10.5,8.96
			c0,5.72-4.67,8.63-11.22,8.63C195.08,58.5,190.73,54.82,190.29,48.44z"/>
		<path class="st0" d="M225.49,27.88L222.52,49c-0.66,4.23-0.22,5.39,1.26,5.39c1.71,0,3.02-3.13,4.56-9.07h0.33
			c-1.92,7.97-4.51,13.91-8.58,13.91c-3.25,0-4.07-2.2-3.19-8.14l3.3-23.21H225.49z M227.69,23.92v0.44H219l0.11-0.44H227.69z"/>
		<path class="st0" d="M228.02,29.25h4.78l5.88,18.04c0.83,2.53,1.87,5.99,1.87,5.99h0.11c0,0,1.04-3.52,1.87-5.99l5.99-18.04h4.62
			l-10.23,28.43h-4.95L228.02,29.25z"/>
		<path class="st0" d="M283.35,42.34c-1.76,9.29-7.37,16.39-16.72,16.39c-10.94,0-15.84-7.09-14.52-17.1
			c1.16-8.08,7.7-14.85,18.04-14.85c9.02,0,12.54,4.89,11.82,9.9c-0.38,2.58-1.82,4.45-4.29,5.66c-2.47,1.15-5.55,1.76-9.18,1.76
			c-4.62,0-8.47-0.88-11.16-2.36c-0.22,0.94-0.22,1.7-0.22,2.42c0,5.55,3.63,10.06,11.44,10.06c7.75,0,12.98-4.73,14.57-11.99
			L283.35,42.34z M257.39,41.35c2.69,1.54,6.71,2.31,10.89,2.31c4.84,0,8.14-1.32,8.8-5.28c0.66-3.57-1.71-6.76-7.81-6.76
			C262.84,31.62,258.49,35.8,257.39,41.35z"/>
		<path class="st0" d="M72.1,60.36h14.3c11.82,0,17.43,8.03,17.43,19.8s-5.99,19.52-17.82,19.52H72.1V60.36z M85.85,95.33
			c9.24,0,12.92-5.94,12.92-15.18c0-9.24-3.3-15.51-12.54-15.51h-9.18v30.69H85.85z"/>
		<path class="st0" d="M136.66,84.34c-1.76,9.29-7.37,16.39-16.72,16.39c-10.94,0-15.84-7.09-14.52-17.1
			c1.15-8.08,7.7-14.85,18.04-14.85c9.02,0,12.54,4.89,11.82,9.9c-0.38,2.58-1.81,4.45-4.29,5.66c-2.47,1.16-5.55,1.76-9.18,1.76
			c-4.62,0-8.47-0.88-11.16-2.36c-0.22,0.93-0.22,1.7-0.22,2.42c0,5.55,3.63,10.06,11.44,10.06c7.75,0,12.98-4.73,14.57-11.99
			L136.66,84.34z M110.71,83.35c2.69,1.54,6.71,2.31,10.89,2.31c4.84,0,8.14-1.32,8.8-5.28c0.66-3.58-1.7-6.76-7.81-6.76
			C116.15,73.62,111.81,77.8,110.71,83.35z"/>
		<path class="st0" d="M137.27,90.44h4.56c0.6,4.95,3.9,6.32,8.14,6.32c4.67,0,6.6-2.03,6.6-4.67c0-3.19-2.2-4.01-7.42-5.11
			c-5.61-1.16-10.61-2.31-10.61-8.52c0-4.73,3.63-7.81,10.23-7.81c7.04,0,10.5,3.35,11.16,8.91h-4.56
			c-0.44-3.74-2.47-5.39-6.71-5.39c-4.07,0-5.72,1.81-5.72,4.07c0,3.08,2.75,3.68,7.64,4.67c5.72,1.15,10.5,2.42,10.5,8.96
			c0,5.72-4.67,8.63-11.22,8.63C142.06,100.5,137.71,96.82,137.27,90.44z"/>
		<path class="st0" d="M171.37,69.88L168.4,91c-0.66,4.23-0.22,5.39,1.26,5.39c1.7,0,3.02-3.13,4.56-9.07h0.33
			c-1.92,7.97-4.51,13.91-8.58,13.91c-3.25,0-4.07-2.2-3.19-8.14l3.3-23.21H171.37z M173.57,65.92v0.44h-8.69l0.11-0.44H173.57z"/>
		<path class="st0" d="M176.1,101.27h4.12c0.44,3.13,3.41,4.34,7.81,4.34c5.22,0,8.14-2.37,8.14-7.31v-4.01h-0.11
			c-2.09,2.7-4.34,4.4-8.41,4.4c-7.37,0-12.43-5.88-12.43-14.08c0-8.85,5.55-14.02,12.15-14.02c4.12,0,6.76,1.59,8.69,4.29h0.11
			v-3.63h4.45v26.89c0,7.48-4.95,11-12.48,11C180.78,109.14,176.6,106.17,176.1,101.27z M196.5,84.39c0-6.21-2.64-10.06-8.69-10.06
			c-5.33,0-8.03,4.18-8.03,10.34c0,6.21,2.8,10.28,8.08,10.28C194.42,94.95,196.5,90.39,196.5,84.39z"/>
		<path class="st0" d="M207.84,74.99h0.11c2.04-2.7,4.89-4.4,9.02-4.4c5.94,0,9.57,3.24,9.57,9.13v19.96h-4.46V80.1
			c0-3.68-2.42-5.77-6.43-5.77c-4.51,0-7.81,3.19-7.81,7.86v17.49h-4.46V71.25h4.46V74.99z"/>
	</g>
</g>
</svg>
